<?xml version="1.0" encoding="UTF-8"?>
<svg id="_Слой_2" data-name="Слой 2" xmlns="http://www.w3.org/2000/svg" viewBox="0 0 3578.8 722.37">
  <defs>
    <style>
      .cls-1 {
        fill: #fff;
      }

      .cls-2 {
        fill: #1f1f1f;
      }

      .cls-3 {
        fill: #05cd6d;
      }
    </style>
  </defs>
  <g id="_Слой_1-2" data-name="Слой 1">
    <g>
      <g>
        <circle class="cls-3" cx="349.02" cy="349.02" r="349.02"/>
        <g>
          <path class="cls-1" d="M299.56,671.24c-25.34,8.16-44.17,19.98-56.19,28.89-46.2-31.62-69.99-67.52-81.35-87.95-22.18-39.91-28.07-76.88-33.59-111.51-2.63-16.47-3.87-41.68-6.38-92.09-2.89-58.32-2.27-86.05-1.42-104.84,.93-20.53,2.45-37.65,3.72-49.84,8.42-51,16.84-102.01,25.27-153.01,92.5-17.15,185.01-34.3,277.51-51.46,57.37,52.3,114.75,104.6,172.12,156.91-2.22,16.65-9.57,71.52-11.8,88.17-.96,7.13-6.54,48.78-7.5,55.91,3.37,4.85,14.68,22.42,11.98,46.13-1.68,14.76-8.05,25.37-11.8,30.69,2.18,4.22,5.08,10.46,7.52,18.32,4.87,15.73,5.64,30.65,3.78,52.02-1.56,17.96-5.31,44.3-15.05,76.35-21.2,8.12-42.41,16.24-63.61,24.35-40.61,14.87-81.23,29.75-121.84,44.63-8.26,6.38-16.53,12.75-24.79,19.13-15.47-.56-39.29,.42-66.59,9.21Z"/>
          <g>
            <polygon class="cls-2" points="479.48 347.15 335.4 347.15 320.37 481.51 435.28 481.51 399.93 526.59 304.46 526.59 284.13 515.1 274.41 526.59 204.58 526.59 163.03 485.04 280.6 485.04 298.28 327.7 479.48 312.68 479.48 347.15"/>
            <path class="cls-2" d="M178.06,364.83h82.21c.7,23.07-18.1,42.43-41.1,42.43s-41.8-19.36-41.1-42.43Z"/>
            <path class="cls-2" d="M351.42,364.83h82.21c.7,23.07-18.1,42.43-41.1,42.43s-41.8-19.36-41.1-42.43Z"/>
            <polygon class="cls-2" points="269.55 346.71 126.35 346.71 126.35 310.02 269.55 328.37 269.55 346.71"/>
            <path class="cls-2" d="M570.53,180.15c-6.8-6.21-13.58-12.39-20.38-18.57-.43-.41-.86-.81-1.3-1.22-22.76-20.73-45.52-41.49-68.27-62.23-17.79-16.25-35.61-32.48-53.4-48.7-33.12,6.13-66.22,12.28-99.35,18.41-32.75,6.07-65.47,12.15-98.21,18.22-26.67,4.94-53.32,9.88-79.99,14.82-8.42,51-16.85,102.02-25.27,153.02,46.68-13.66,120.24-28.18,208.14-16.55,77.97,10.34,132.58,36.69,146.13,43.44,45.35,22.6,78.91,49.11,101.32,69.62,6.45-48.03,12.88-96.05,19.3-144.08-9.58-8.72-19.14-17.47-28.72-26.19Zm-22.97-14.09c6.8,6.18,13.58,12.36,20.38,18.57-.3,1.13-.86,2.11-1.75,2.81-11.77,9.5-28.86-7.72-28.86-7.72l7.26-1.19c4.08-.67,3.91-7.05,2.97-12.47Zm-69.57-63.44c22.76,20.73,45.52,41.49,68.27,62.23-.4,4.35-2.73,9.34-11.12,9.72-15.2,.65-64.82-50.51-67.38-63.58-1.13-5.78,4.05-7.86,10.23-8.37ZM150.14,222.67c-.11-3.81-.05-18.2,10.5-29.26,12.69-13.34,35.39-16.39,50.16-5.81,9.1,6.51,12.36,16.15,13.52,20.41l-74.19,14.66Zm82.64-16.09c.7-3.75,3.78-17.79,16.44-26.4,15.2-10.37,38.01-8.56,50.24,4.91,7.51,8.26,8.69,18.36,8.94,22.78l-75.62-1.3Zm71.54-125.72c1.92,2.02,12.2,13.88,4.08,31.86-8.96,19.76-73.75,22.51-84.07,10.58-6.34-7.34-.3-21.79,5.29-31.83,32.75-6.07,65.47-12.15,98.21-18.22,5.24,4.27,8.58,9.42,8.37,15.58-.95,25.73-23,27.13-23,27.13l3.7-10.47c3.4-9.64-10.42-22.7-12.58-24.62Zm85.25,141.25l-74.56-12.55c1.24-3.62,6.37-17.06,20.17-23.68,16.6-7.96,38.9-2.78,48.97,12.36,6.18,9.31,5.83,19.46,5.43,23.86Zm33.1,6.51c.38-3.43,2.13-16.28,10.15-21.92,9.64-6.78,24.38-.38,32.45,15.04,4.97,9.48,5.89,19.38,6.1,23.65l-48.7-16.76Zm101.94,50.48l-47.7-31.59c.89-3.05,4.51-14.39,13.58-16.98,10.88-3.11,25.11,7.69,31.21,24.62,3.75,10.42,3.29,19.92,2.92,23.95Zm49.65,45.41l-45.68-41.25c1.21-2.7,6.1-12.63,15.63-13.01,11.45-.41,24.94,13.17,29.51,30.78,2.78,10.77,1.35,19.73,.54,23.49Z"/>
            <path class="cls-2" d="M531.19,355.1v111.15s-9.28,103.42-87.51,135.9c-78.23,32.48-143.86,26.52-143.86,26.52l-2.65-38.45,24.09-32.48h-73.15l27.18,32.48-1.33,38.88s-49.06-1.09-84.86-17l-35.8-15.91s49.06,102.09,123.31,116.68c37.4,7.35,74.63,13.35,116.02,6.48,24.24-4.02,89.23-15.24,138.55-68.79,77.14-83.75,65.17-216.21,47.29-221.2-3.78-1.06-10.09,2.97-21.21,21.21-3.93-30-7.85-60.01-11.78-90.01-4.77-1.82-9.53-3.64-14.3-5.46Z"/>
          </g>
        </g>
      </g>
      <g>
        <path class="cls-2" d="M1244.61,594.81h-124.54l-67.54-145.64h-61.92l-68.25,145.64h-124.54l88.65-189.97-83.73-180.82h123.83l61.21,131.57h66.14l61.92-131.57h123.83l-83.73,180.82,88.65,189.97Z"/>
        <path class="cls-2" d="M1474.68,212.06c68.48,0,119.02,12.31,151.62,36.94,32.6,24.63,48.9,62.97,48.9,115.04v230.78h-118.91v-59.1c-29.09,47.38-75.28,71.06-138.61,71.06-50.2,0-88.07-9.74-113.63-29.2-25.57-19.46-38.34-47.72-38.34-84.78,0-80.21,62.62-120.31,187.86-120.31,39.4,0,73.63,3.52,102.72,10.55v-19c0-22.04-6.57-38.1-19.7-48.2-13.14-10.08-33.77-15.13-61.92-15.13-49.72,0-76.46,12.66-80.21,37.99h-108.35c4.22-84.43,67.07-126.65,188.56-126.65Zm-18.29,311.69c30.48,0,54.64-6.44,72.47-19.35,17.82-12.9,26.97-31.31,27.44-55.23v-1.41c-24.87-6.09-56.06-9.15-93.58-9.15-57.23,0-85.84,13.84-85.84,41.51,0,29.09,26.49,43.62,79.51,43.62Z"/>
        <path class="cls-2" d="M1865.02,224.02v97.8c30.96-73.17,81.85-109.76,152.68-109.76v119.61c-51.6,0-89.12,9.62-112.57,28.85-23.46,19.24-36.83,53.01-40.1,101.32v132.98h-118.2V224.02h118.2Z"/>
        <path class="cls-2" d="M2123.31,165.62c-26.27,0-44.09-3.87-53.47-11.61-9.39-7.74-14.07-22.62-14.07-44.68s4.68-37.64,14.07-45.38c9.38-7.74,27.2-11.61,53.47-11.61,27.67,0,46.19,3.87,55.58,11.61,9.38,7.74,14.07,22.87,14.07,45.38s-4.82,36.94-14.42,44.68c-9.62,7.74-28.03,11.61-55.23,11.61Zm59.8,429.19h-118.2V224.02h118.2v370.79Z"/>
        <path class="cls-2" d="M2597.45,285.23V60.08h118.2V594.81h-118.2v-64.03c-29.55,50.66-82.56,75.99-159.01,75.99-67.08,0-116.69-16.06-148.81-48.2-32.13-32.12-48.2-82.2-48.2-150.22s16.06-116.55,48.2-148.46c32.12-31.89,81.73-47.84,148.81-47.84,76.92,0,129.92,24.39,159.01,73.17Zm-120.31,229.37c39.4,0,69.89-8.9,91.47-26.74,21.57-17.82,32.37-42.21,32.37-73.17v-17.59c-.95-29.55-12.2-52.53-33.77-68.95-21.58-16.41-51.83-24.62-90.76-24.62s-70.36,8.21-88.65,24.62c-18.29,16.42-27.44,43.16-27.44,80.21s9.15,65.2,27.44,81.62c18.29,16.42,48.07,24.62,89.35,24.62Z"/>
        <path class="cls-2" d="M3013.05,606.77c-82.56,0-143.07-15.94-181.53-47.84-38.47-31.89-57.69-82.08-57.69-150.57s19.23-117.15,57.69-148.81c38.46-31.66,98.96-47.49,181.53-47.49s141.53,15.95,179.77,47.84c38.22,31.9,57.34,81.39,57.34,148.46s-19.12,118.67-57.34,150.57c-38.24,31.9-98.15,47.84-179.77,47.84Zm0-93.58c43.62,0,74.34-7.85,92.17-23.57,17.82-15.71,26.74-42.8,26.74-81.26s-8.92-64.03-26.74-79.5c-17.83-15.48-48.55-23.22-92.17-23.22s-75.17,7.74-93.23,23.22c-18.06,15.48-27.09,41.98-27.09,79.5s9.03,66.14,27.09,81.62c18.05,15.48,49.13,23.22,93.23,23.22Z"/>
        <path class="cls-2" d="M3426.12,224.02v97.8c30.96-73.17,81.85-109.76,152.68-109.76v119.61c-51.6,0-89.12,9.62-112.57,28.85-23.46,19.24-36.83,53.01-40.1,101.32v132.98h-118.2V224.02h118.2Z"/>
      </g>
    </g>
  </g>
</svg>